<svg version="1.1" xmlns="http://www.w3.org/2000/svg" xmlns:xlink="http://www.w3.org/1999/xlink" x="0px" y="0px" viewBox="0 0 1200 1200" enable-background="new 0 0 1200 1200" xml:space="preserve">
    <path d="M405.1,647.7c56.8-4.9,45.8,15.3,49.9,68.9c1.3,16,8.3,29.5,0,46.5c-8.1,16.7-62.1,32.8-60.1,46.1c4,4.9,9.3,7.4,15.9,7.5 c-66.4,39-10.4,89.7,41.5,41.2c20.7-19.4,27.7-50,44.1-72.6c25.5-35.2,46.8-55,60.4-96.7c14.9-45.7,16.9-23.2,61.5-18.4 c13.1,1.4,38.5-7.7,49.3-1.9c8.1,4.3,21,59.1,26.8,72.7c14.2,33,27.2,60.6,23,98.2c-1.6,14.9-12.2,28.4-5.5,43 c1.8,4,17.9-11.7,19.7-10.5c9.2,5.7-3.9,24.2,4,31.4c8.9,8.2,32,11.6,43,10.9c47.2-3,10.9-17.1,19.8-26.6c5.4,5.2,20.2,22.1,28.9,13 c-0.6,0.6-65-78.5-68.7-95.9c-7.4-35.1,7.1-74.4,8.1-109.8c1.4-53.7,7.3-81.3,38.7-121.1c25.5-32.3,24.5-28.4,63-24.9 c22.9,2.1,43.6-2.1,66.7-1.7c18.2,0.4,31.9,13.7,52.5,4.3c18.1-8.2,35.8-32.1,39.3-50.4c5.6-28.6-17.2-72.6-20.5-103.8 c-2.1-19.7,1.7-45.4-5.3-65c49.7-13,32.5-38,4.6-61.3c88-44.6,45.4-128.9,98-189.3c-24.4-21-75.1,109.4-86.2,119.6 c-20.8,19-81.9,27.5-104.7,7.8c2.3-3,2.9-6.2,1.8-9.6c-7.8,0.4-15,3-21.7,7.9c2-4.9,1.3-7.5-2-7.7c-2.4,6.3-6.7,8.5-12.9,6.6 c2.6-6.4,0.8-10.3-5.4-11.6c2.7,13.1-9.5,11.4-16.5,16.8c1.2-5.8-0.6-10.4-5.6-13.8c3.4,17.4-12.1,14.3-16.5,7.7 c-19.7,14.6,0.4,11.5-35.3,3.5c-25.5-5.7-73.9,1.3-94.6-9.4c-38.4-19.9-40.5-80-100-80c15.6,29.3,78.4,60.9,38.8,92.8 c-14.4,11.6-39.3,6.6-55.8,8.9c-27.1,3.8-53.2,12.4-79.2,20.6c-58.8,18.6-111.4,30.5-173.4,31.3c-54,0.6-106.3-9.5-158.9,4.9 C90.1,301.3-5.9,267.6,0.5,398.8c2.1,42.7,12.2,86.6,18.8,128.7c3.5,22.3,9,45.3,9.2,68.1c0.2,24.9-14.6,55.7,3.5,77.7 c1.4-2.8,2.7-5.6,3.8-8.5c4.3,20.9,12.8,89.6,36.1,97.8C82.9,682.3,88.8,612.8,61.2,533c-17.3-50-91.8-199.3,5.7-210.6 c-45.1,55.6-8.7,131.1,22.9,188.3c13.1,23.8,52.9,62.1,52.5,90.7c-0.4,30.2-32.3,40.1-42,62.6c-16.6,38.5-15.2,125-14.4,169.1 c0.5,30.1,30.5,70.1,72.7,52.2c-1.5-4.1-3.8-7.6-7-10.6c6.9,5,14.4,6.4,22.7,4.1c-23.4-40.1-50.9-41.4-45-94.3 c4.5-40.8,25-82.4,54.9-110.9c4.8,19.7,0.6,36.6,7.4,56.1c8.6,24.5,27.5,52.2,40.3,74.7c11.4,20,39.3,110.1,56,90.3 c6.1,15.4,61.6,37.6,67.7,13.6c-2.2-5.8-6.2-10.3-11.8-13.4c2.9-4.6,19.2,15.4,26.2,5.8c0,0-69.6-57.1-74.9-63.8 c-28.5-35.7-38.3-83.2-42.4-128.2c-1.3-13.9-7.9-69.5-1.2-79.5c14.1-21.4,5.5-10,33.8-1.9C322.8,638.1,365.2,653,405.1,647.7 C415.9,646.8,374.6,651.7,405.1,647.7z" fill="#3C648A"/>
</svg>
