<?xml version="1.0" encoding="iso-8859-1"?>
<!-- Generator: Adobe Illustrator 16.0.0, SVG Export Plug-In . SVG Version: 6.00 Build 0)  -->
<!DOCTYPE svg PUBLIC "-//W3C//DTD SVG 1.1//EN" "http://www.w3.org/Graphics/SVG/1.1/DTD/svg11.dtd">
<svg version="1.1" id="Capa_1" xmlns="http://www.w3.org/2000/svg" xmlns:xlink="http://www.w3.org/1999/xlink" x="0px" y="0px"
	 width="682.208px" height="682.207px" viewBox="0 0 682.208 682.207" style="enable-background:new 0 0 682.208 682.207;"
	 xml:space="preserve">
<g>
	<g>
		<path d="M640.352,484.145c-7.781-27.61-9.062-28.531-11.67-30.407L475.708,345.364c-14.32-10.182-28.65-20.372-43.028-30.451
			c-4.254-2.977-9.098-5.232-13.787-7.412c-5.368-2.497-10.917-5.077-14.025-8.204c-7.746-7.763-8.777-25.585-9.604-39.906
			c-0.3-5.17-0.586-10.053-1.141-14.413c-2.713-21.248-6.328-42.587-9.815-63.228l-2.083-12.33
			c-0.718-4.258-1.304-8.591-1.894-12.946c-2.281-16.853-4.638-34.278-14.404-49.744c-6.707-10.617-13.758-15.778-21.552-15.778
			c-3.792,0-9.402,1.33-14.567,7.671c-10.009,12.29-14.374,40.068-11.309,54.891c2.559,12.269,1.312,25.488-0.101,39.474
			c-5.628-13.352-12.44-27.25-21.208-43.349c-13.625-25.052-22.371-44.79-28.359-63.972c-0.524-1.691-1.105-3.721-1.752-5.998
			c-6.161-21.499-16.465-57.476-42.139-57.476c-2.563,0-5.188,0.396-7.799,1.176c-19.601,5.87-24.898,28.395-23.476,45.952
			c0.814,9.411,3.457,18.104,6.015,26.51c0.749,2.47,1.501,4.94,2.197,7.402c1.995,7.121,2.66,14.219,3.369,21.732
			c0.273,2.933,0.55,5.892,0.907,8.909c0.511,4.315,1.343,8.517,2.392,12.612c-0.498-0.476-1-0.951-1.493-1.422
			c-6.627-6.324-12.885-12.299-17.341-17.689c-8.534-10.309-16.241-21.758-23.692-32.833c-7.394-10.987-15.034-22.348-23.696-32.974
			c-4.254-5.223-8.146-10.692-12.264-16.483c-7.645-10.75-15.554-21.869-25.951-31.213C94.719,5.447,81.037,0,69.24,0
			C55.007,0,44.548,7.675,40.541,21.084c-5.672,19.16-4.624,42.222,2.88,63.254c6.121,17.231,16.346,28.359,27.175,40.144
			c2.453,2.668,4.954,5.395,7.451,8.244c7.852,8.979,11.837,20.45,16.056,32.6c4.337,12.506,8.829,25.44,17.901,36.559
			c4.95,6.081,10.591,11.265,16.051,16.276c6.834,6.275,13.29,12.202,17.901,19.354c2.246,3.505,3.62,7.896,5.082,12.546
			c1.123,3.576,2.286,7.266,3.937,10.943c2.114,4.743,9.433,20.098,20.543,32.776c-26.29-0.189-59.731,2.092-82.604,23.582
			c-22.595,21.261-32.829,50.061-42.724,77.909c-1.017,2.866-2.035,5.725-3.056,8.552c-1.22,3.382-2.695,6.61-4.254,10.027
			c-4.5,9.864-9.604,21.045-7.134,35.392c2.365,13.559,10.793,24,18.231,33.213c1.678,2.078,3.342,4.139,4.915,6.213
			c0.031,0.035,0.062,0.075,0.088,0.11c1.158,1.502,26.118,34.44,26.114,34.437c0.436,0.572,0.876,1.136,1.33,1.682
			c-18.517,10.78-21.27,24.863-21.027,33.103c0.599,20.274,19.469,40.042,45.882,48.074c3.571,1.093,6.905,1.775,10.133,2.439
			c8.063,1.652,12.823,2.823,16.954,7.646c2.585,3.003,4.236,6.283,6.147,10.079c3.453,6.866,7.368,14.643,17.307,21.283
			c17.104,11.396,38.532,16.937,65.508,16.937c17.646,0,35.031-2.224,51.844-4.373c3.32-0.427,6.597-0.846,9.811-1.237
			c6.654-0.811,13.312-2.348,19.759-3.84c9.785-2.259,19.015-4.355,27.668-4.029c10.256,0.44,20.433,3.655,31.2,7.059
			c11.189,3.532,22.758,7.188,35.212,7.905c4.937,0.286,9.987,0.431,15.435,0.431c14.88,0,29.879-1.087,44.389-2.136
			c13.959-1.008,28.39-2.052,42.288-2.069c5.535,0,14.766,4.721,22.907,8.887c10.724,5.487,21.808,11.154,32.12,11.154
			c5.091,0,9.618-1.374,13.462-4.078c20.737-14.646,43.953-46.269,50.708-69.079c4.206-14.334,7.979-31.39,11.63-47.89
			c3.483-15.752,7.086-32.041,10.97-45.468C647.428,513.222,647.992,511.267,640.352,484.145z M618.536,557.359
			c-3.58,16.21-7.292,32.975-11.321,46.714c-5.702,19.271-26.25,47.154-43.957,59.66c-0.524,0.37-1.436,0.859-3.312,0.859
			c-6.068,0-15.65-4.901-24.102-9.222c-10.396-5.319-21.15-10.819-30.966-10.819c-14.501,0.018-29.254,1.083-43.517,2.113
			c-14.197,1.026-28.879,2.092-43.121,2.092c-5.099,0-9.815-0.132-14.413-0.4c-10.265-0.595-20.301-3.761-30.922-7.121
			c-11.388-3.598-23.168-7.318-35.753-7.855c-11.009-0.463-21.913,2.043-32.384,4.465c-6.275,1.449-12.198,2.818-17.923,3.515
			c-3.25,0.396-6.557,0.818-9.917,1.25c-16.263,2.079-33.089,4.232-49.611,4.232c-23.713,0-41.425-4.443-55.732-13.973
			c-6.064-4.052-8.394-8.68-11.344-14.546c-2.123-4.223-4.531-9.01-8.517-13.634c-8.239-9.626-18.086-11.647-26.778-13.426
			c-2.955-0.608-5.751-1.181-8.535-2.03c-18.376-5.589-33.049-19.535-33.41-31.746c-0.326-11.203,11.661-18.011,21.78-21.749
			c2.964-1.097,5.113-3.695,5.632-6.812c0.52-3.118-0.669-6.275-3.122-8.274c-2.325-1.894-5.694-4.545-8.138-7.795
			c-20.591-27.17-25.087-34.344-26.232-34.344h0.004c-1.682-4.403-3.457-4.659-5.245-6.874c-6.689-8.283-13-16.228-14.581-25.272
			c-1.545-8.975,1.7-16.14,5.8-25.136c1.638-3.585,3.329-7.328,4.795-11.38c1.03-2.857,2.061-5.76,3.087-8.657
			c9.199-25.876,18.707-52.646,38.197-70.982c17.641-16.571,44.477-18.812,68.393-18.812c7.477,0,14.919,0.247,22.11,0.484
			c4.263,0.141,8.411,0.277,12.414,0.361c4.861,0.163,7.812-3.76,7.917-8.622c0.097-4.862-0.885-9.424-9.692-9.525v-0.538
			c0,0,2.123,0,2.118,0c-12.572,0-28.223-20.204-37.184-40.284c-1.233-2.748-2.193-5.531-3.21-8.759
			c-1.744-5.544-3.545-11.146-7.072-16.655c-5.857-9.071-13.458-15.985-20.803-22.736c-5.227-4.8-10.159-9.301-14.312-14.396
			c-7.108-8.715-10.904-19.623-14.92-31.191c-4.584-13.207-9.322-26.854-19.438-38.417c-2.598-2.964-5.192-5.786-7.737-8.552
			c-9.996-10.877-18.623-20.27-23.55-34.133c-6.28-17.615-7.218-36.691-2.589-52.333c1.185-3.95,3.598-8.49,11.815-8.49
			c7.341,0,17.051,3.941,23.092,9.367c8.944,8.041,15.95,17.892,23.37,28.32c4.104,5.769,8.35,11.736,12.964,17.399
			c8.151,10,15.562,21.019,22.736,31.68c7.693,11.432,15.646,23.247,24.73,34.229c5.122,6.187,11.745,12.511,18.755,19.2
			c13.272,12.661,28.311,27.017,31.812,40.091c1.255,4.694,6.051,7.491,10.785,6.231c4.694-1.259,7.486-6.085,6.227-10.789
			c-0.004-0.026-0.013-0.053-0.022-0.08c-2.431-9.054-5.888-17.676-9.234-26.012c-4.826-12.035-9.384-23.401-10.811-35.449
			c-0.339-2.871-0.608-5.689-0.863-8.481c-0.749-7.962-1.52-16.192-3.946-24.854c-0.731-2.594-1.519-5.179-2.303-7.764
			c-2.396-7.887-4.663-15.333-5.315-22.855c-0.713-8.816,0.797-24.559,10.969-27.606c0.978-0.291,1.902-0.436,2.757-0.436
			c12.392,0,21.697,32.481,25.198,44.706c0.691,2.413,1.312,4.571,1.872,6.381c6.346,20.345,15.509,41.055,29.707,67.16
			c11.657,21.406,19.31,38.677,25.682,55.997l13.22,37.061c0,0.004,0,0.004,0,0.009v0.004c4.404,4.562,7.275,6.856,11.837,5.179
			c4.562-1.673,5.778-6.782,5.778-11.344v-0.004l-0.185-0.04c-5.504-15.096-3.915-31.636-2.145-49.145
			c1.528-15.061,3.056-30.636-0.11-45.846c-3.061-14.805,4.236-38.294,8.701-41.262c0.771,0.401,3.078,1.964,6.553,7.464
			c7.72,12.224,9.719,27.029,11.837,42.702c0.616,4.545,1.229,9.072,1.978,13.506l2.083,12.348
			c3.461,20.464,7.041,41.627,9.71,62.519c0.476,3.756,0.744,8.345,1.021,13.198c1.004,17.297,2.25,38.822,14.708,51.311
			c5.307,5.346,12.312,8.604,19.081,11.749c4.179,1.942,8.129,3.778,11.106,5.865c14.347,10.054,28.641,20.222,42.926,30.381
			l151.138,107.074c3.017,8.046,11.493,38.325,12.722,45.525C625.485,525.957,621.958,541.911,618.536,557.359z"/>
		<path d="M301.223,413.88c-6.02-2.897-12.048-5.936-18.108-8.987c-14.682-7.398-29.861-15.048-45.437-20.904
			c-1.321-0.493-2.766-0.735-4.426-0.735c-5.628,0-16.007,2.959-33.855,8.195c-15.576,4.566-34.798,10.203-43.354,10.661
			c-1.501-1.484-4.034-2.436-6.306-2.532c-4.646-0.247-9.666,3.562-9.666,8.42v0.044h0.493c-0.229,4.403-2.598,13.026-5.122,20.662
			c-4.677,14.113-8.591,26.294-3.813,35.146c3.774,7.001,8.648,13.312,12.894,18.878c6.742,8.847,12.599,16.483,11.723,22.886
			c-0.63,4.598-4.8,9.86-12.432,15.633c-2.845,2.149-4.1,5.804-3.197,9.252c0.898,3.448,3.796,6.016,7.328,6.496
			c8.213,1.122,15.716,5.442,23.661,10.014c9.736,5.602,19.799,11.396,32.534,12.392c3.408,0.26,6.804,0.388,10.076,0.388
			c9.265,0,17.989-1.039,25.919-3.083c2.7-0.695,5.663-1.356,8.754-2.043c12.484-2.783,26.629-5.945,36.339-13.396
			c7.451-5.712,12.229-13.727,16.853-21.477c2.783-4.673,5.412-9.081,8.349-12.458c14.832-17.064,15.761-34.186,15.439-54.79
			C325.558,431.371,320.265,423.062,301.223,413.88z M297.132,495.783c-3.963,4.562-7.125,9.864-10.181,14.99
			c-3.941,6.614-7.663,12.858-12.44,16.518c-6.623,5.082-18.755,7.79-29.452,10.182c-3.285,0.735-6.438,1.44-9.309,2.18
			c-8.869,2.285-19.218,3.025-30.253,2.188c-8.741-0.683-16.686-5.253-25.092-10.093c-4.566-2.629-9.208-5.302-14.175-7.508
			c4.267-5.271,6.742-10.648,7.504-16.236c1.867-13.651-6.777-24.986-15.14-35.956c-4.038-5.298-8.217-10.775-11.247-16.373
			c-1.004-3.14,2.796-14.598,5.06-21.445c1.603-4.853,3.241-9.794,4.443-14.523c10.833-0.599,29.456-6.055,47.498-11.348
			c10.19-2.986,23.947-7.02,28.267-7.447c14.307,5.47,28.672,12.709,42.574,19.716c6.152,3.1,12.282,6.187,18.398,9.128
			c12.951,6.245,14.457,8.614,14.668,23.066C308.546,471.26,307.943,483.352,297.132,495.783z"/>
	</g>
</g>
<g>
</g>
<g>
</g>
<g>
</g>
<g>
</g>
<g>
</g>
<g>
</g>
<g>
</g>
<g>
</g>
<g>
</g>
<g>
</g>
<g>
</g>
<g>
</g>
<g>
</g>
<g>
</g>
<g>
</g>
</svg>
