<svg version="1.1" id="Capa_1" xmlns="http://www.w3.org/2000/svg" xmlns:xlink="http://www.w3.org/1999/xlink" x="0px" y="0px" viewBox="0 0 850 850" style="enable-background:new 0 0 236.62 236.62;" xml:space="preserve">
<path d="M321,514.1c-25.1,10.4-37.4,28.9-40.3,54.2c-1.4,12.4,1.9,16.7,13,22.3c6.4,3.2,12.6,7.9,17,13.4c4.7,5.8,1.1,8.7-4.9,12.8 c-12.2,8.6-24.4,3.1-36.7,2.4c-2-0.1-4.6-0.8-5.7-2.2c-8.1-9.9-18.6-18.5-18.5-33c0.2-15.3,0.2-30.6,0.4-45.9 c0.1-8.5,3.4-16.1,9.5-21.8c15.9-14.8,22.8-33.8,25-54.5c2.3-22.5,1.8-44.9-6.2-66.8c-3.4-9.3-4.3-19.4-7.6-29.7 c-3.6,13.4-7.8,26.6-10.8,40.1c-5.1,23.6-8.6,47.5-14.5,70.9c-5.2,20.7-14.7,39.5-31.3,54.1c-27.3,24-79.9,16.1-90-23.4 c-1.1-4.3-1.3-9.3-0.3-13.7c0.5-2.3,4.1-4.5,6.8-5.4c0.9-0.3,4.3,3.3,4.7,5.4c2.8,16.9,12.6,26.5,29.4,28.7 c14.2,1.8,25.7-3.8,33.6-15.4c13.5-19.8,19-42.5,22.5-66c4.8-32.8,9.2-65.8,16.3-98.2c8.1-37.2,32.4-61.2,67.9-74.2 c9.6-3.5,19.2-7,28.6-10.9c19.9-8.4,40.7-7.4,61.1-4.5c24.3,3.5,48.2,9.6,72.5,13.4c16.5,2.6,33.3,3,49.9,5.1 c20.5,2.6,40.9,5.6,61.2,9.3c15.9,2.9,30.8,2.1,45.1-6.2c17.9-10.5,37-12.1,57.2-7.8c7.4,1.6,15.6,0.2,23.3-1.1 c6.1-1,11.9-3.8,17.7-6.2c20.8-8.8,42.2-15.6,64.9-17.1c1.2-0.1,2.3-0.4,3.5-0.5c8.9-0.5,16.5-1.9,20-12.5c2.1-6.4,11.1-7,16.6-1.6 c3.8,3.7,5.9,9.2,9,13.7c2.9,4.2,5.3,9.4,9.2,12.2c11.7,8.5,21.2,19.1,28.8,31c3.8,5.9,5.2,13.7,6.2,20.9c1.1,7.2,2.4,13.5,7,19.8 c5.3,7.1,9,15.7,11.8,24.2c1.1,3.2-1.2,8.8-3.8,11.7c-5.4,6.1-11.3,11.2-14.2,19.7c-3.5,10.1-22.2,10.7-31.8,1.8 c-4.3-3.9-8-8.5-12.7-11.8c-2.3-1.6-7.6-2.5-9.2-1.1c-11.1,9.7-25.1,9.2-38.1,11.5c-16.4,2.9-28,11.6-32.6,26.7 c-12.8,42.4-24.6,85.1-36,127.9c-4.6,17.4-4,34.9,6.2,51.1c5.6,8.8,13.2,13.2,23.5,13.9c5.8,0.4,11.5,1.4,17.2,2.6 c7.3,1.6,12.2,6.3,15.3,13c2,4.4,0.8,8.6-3.1,10.2c-20.5,8.1-41.2,14.3-62.5,2.1c-7.9-4.6-16.9-7.5-24.3-12.7 c-4.7-3.3-9-8.9-10.8-14.4c-7.2-22-13.4-44.4-20-66.6c-1.9-6.4-3.9-12.8-6-19.7c-6.8,11-15.3,20.9-19.3,32.3 c-3.6,10.5-3,22.8-2.8,34.2c0,2.3,6.3,5.1,10.1,6.6c4.9,1.9,10.4,2.2,15.2,4.2c4.8,2,6.2,6.1,2.7,10.7c-2.4,3.2-4.4,8.5-7.3,9 c-8.7,1.7-17.8,1.8-26.7,1.9c-3.8,0-7.6-1.7-11.5-2.5c-7.8-1.7-11.3-6.3-12.9-14.4c-1.8-9-4.2-18-7.1-26.7c-2.4-7-2.9-13.5,0.8-20.1 c10.5-18.4,8.7-38.5,7.6-58.5c-0.2-3.7-2.7-4.5-5.9-5.4c-8.6-2.5-17.4-4.8-25.4-8.6c-11.6-5.6-23.6-8.1-35.8-5.1 c-26.2,6.4-51.6,3.2-76.9-4.7c-8.1-2.6-16.7-3.8-25.2-5.2c-8-1.3-13.4,1.6-17.2,8.8c-2.1,3.9-3.6,8.1-5.7,11.9 c-9.6,17.8-19.2,35.5-28.9,53.2c-2.6,4.7-5.4,9.2-7.7,14c-8,16.4-7.1,24.5,5.1,37.9c8.3,9.1,18.5,15.1,30.6,18.3 c6.3,1.6,12.5,5.1,17.6,9.1c8.4,6.7,7.3,10.5-2.1,15.8c-14.1,7.9-29.1,7.4-44.3,5.2c-2-0.3-4.3-1.1-5.7-2.4 c-11.2-11.1-22.3-22.2-33.1-33.7c-5.2-5.6-9.4-12.1-14.5-17.8c-5.7-6.4-7.9-13.3-6-21.8c3.1-13.8,6.1-27.7,3.5-42 C321.9,518,321.5,516.2,321,514.1z" fill="#3C648A"/>
</svg>
